
    <svg
        width="1200"
        height="420"
        viewBox="0 0 1200 420"
        fill="none"
        xmlns="http://www.w3.org/2000/svg">
            <rect xmlns="http://www.w3.org/2000/svg" data-testid="card_bg" id="cardBg"
            x="0" y="0" rx="0" height="100%" stroke="#E4E2E2" fill-opacity="1"
            width="100%" fill="#00000000" stroke-opacity="1" style="stroke:#ffffff; stroke-width:1;"/>

            <style>
                body {
                    font: 600 18px 'Segoe UI', Ubuntu, Sans-Serif;
                }
                .header {
                    font: 600 20px 'Segoe UI', Ubuntu, Sans-Serif;
                    text-align: center;
                    color: #6CABDD;
                    margin-top: 20px;
                }
                svg {
                    font: 600 18px 'Segoe UI', Ubuntu, Sans-Serif;
                    user-select: none;
                }
                
    .ct-label {
      fill: #6CABDD;
      color: #6CABDD;
      font-size: .75rem;
      line-height: 1;
    }

    .ct-grid-background,
    .ct-line {
      fill: none;
    }

    .ct-chart-bar .ct-label,
    .ct-chart-line .ct-label {
      display: block;
      display: -webkit-box;
      display: -moz-box;
      display: -ms-flexbox;
      display: -webkit-flex;
      display: flex;
    }

    .ct-label.ct-horizontal.ct-start {
      -webkit-box-align: flex-end;
      -webkit-align-items: flex-end;
      -ms-flex-align: flex-end;
      align-items: flex-end;
      -webkit-box-pack: flex-start;
      -webkit-justify-content: flex-start;
      -ms-flex-pack: flex-start;
      justify-content: flex-start;
      text-align: left;
      text-anchor: start;
    }

    .ct-label.ct-horizontal.ct-end {
      -webkit-box-align: flex-start;
      -webkit-align-items: flex-start;
      -ms-flex-align: flex-start;
      align-items: flex-start;
      -webkit-box-pack: flex-start;
      -webkit-justify-content: flex-start;
      -ms-flex-pack: flex-start;
      justify-content: flex-start;
      text-align: left;
      text-anchor: start;
    }

    .ct-label.ct-vertical.ct-start {
      -webkit-box-align: flex-end;
      -webkit-align-items: flex-end;
      -ms-flex-align: flex-end;
      align-items: flex-end;
      -webkit-box-pack: flex-end;
      -webkit-justify-content: flex-end;
      -ms-flex-pack: flex-end;
      justify-content: flex-end;
      text-align: right;
      text-anchor: end;
    }

    .ct-label.ct-vertical.ct-end {
      -webkit-box-align: flex-end;
      -webkit-align-items: flex-end;
      -ms-flex-align: flex-end;
      align-items: flex-end;
      -webkit-box-pack: flex-start;
      -webkit-justify-content: flex-start;
      -ms-flex-pack: flex-start;
      justify-content: flex-start;
      text-align: left;
      text-anchor: start;
    }

    .ct-grid {
      stroke: #6CABDD;
      stroke-width: 1px;
      stroke-opacity: 0.3;
      stroke-dasharray: 2px;
    }

    .ct-point {
      stroke-width: 10px;
      stroke-linecap: round;
      stroke: #FFCE00;
      animation: blink 1s ease-in-out forwards;
    }

    .ct-line {
      stroke-width: 4px;
      stroke-dasharray: 5000;
      stroke-dashoffset: 5000;
      stroke: #6CABDD;
      animation: dash 5s ease-in-out forwards;
    }

    .ct-area {
      stroke: none;
      fill-opacity: 0.1;
    }

    .ct-series-a .ct-area,
    .ct-series-a .ct-slice-pie {
      fill: #6CABDD30;
    }

    .ct-label .ct-horizontal {
      transform: rotate(-90deg)
    }
    
                
        @keyframes blink {
            from {
                opacity: 0;
                transform:translateX(-20px); 
            }
            to {
                opacity:1;
                transform: translateX(0);
            }
        }
    
                
        @keyframes dash {
            to {
                stroke-dashoffset: 0;
            }
        }
    
    
            </style>

            <foreignObject x="0" y="0" width="1200" height="50">
                <h1 xmlns="http://www.w3.org/1999/xhtml" class="header">
                    promise's Contribution Graph
                </h1>
            </foreignObject>
            <svg xmlns:ct="http://gionkunz.github.com/chartist-js/ct" width="1200" height="420" class="ct-chart-line"><g class="ct-grids"><line x1="90" x2="90" y1="80" y2="350" class="ct-grid ct-horizontal"></line><line x1="125.33333333333334" x2="125.33333333333334" y1="80" y2="350" class="ct-grid ct-horizontal"></line><line x1="160.66666666666669" x2="160.66666666666669" y1="80" y2="350" class="ct-grid ct-horizontal"></line><line x1="196" x2="196" y1="80" y2="350" class="ct-grid ct-horizontal"></line><line x1="231.33333333333334" x2="231.33333333333334" y1="80" y2="350" class="ct-grid ct-horizontal"></line><line x1="266.6666666666667" x2="266.6666666666667" y1="80" y2="350" class="ct-grid ct-horizontal"></line><line x1="302" x2="302" y1="80" y2="350" class="ct-grid ct-horizontal"></line><line x1="337.33333333333337" x2="337.33333333333337" y1="80" y2="350" class="ct-grid ct-horizontal"></line><line x1="372.6666666666667" x2="372.6666666666667" y1="80" y2="350" class="ct-grid ct-horizontal"></line><line x1="408" x2="408" y1="80" y2="350" class="ct-grid ct-horizontal"></line><line x1="443.33333333333337" x2="443.33333333333337" y1="80" y2="350" class="ct-grid ct-horizontal"></line><line x1="478.6666666666667" x2="478.6666666666667" y1="80" y2="350" class="ct-grid ct-horizontal"></line><line x1="514" x2="514" y1="80" y2="350" class="ct-grid ct-horizontal"></line><line x1="549.3333333333334" x2="549.3333333333334" y1="80" y2="350" class="ct-grid ct-horizontal"></line><line x1="584.6666666666667" x2="584.6666666666667" y1="80" y2="350" class="ct-grid ct-horizontal"></line><line x1="620" x2="620" y1="80" y2="350" class="ct-grid ct-horizontal"></line><line x1="655.3333333333334" x2="655.3333333333334" y1="80" y2="350" class="ct-grid ct-horizontal"></line><line x1="690.6666666666667" x2="690.6666666666667" y1="80" y2="350" class="ct-grid ct-horizontal"></line><line x1="726" x2="726" y1="80" y2="350" class="ct-grid ct-horizontal"></line><line x1="761.3333333333334" x2="761.3333333333334" y1="80" y2="350" class="ct-grid ct-horizontal"></line><line x1="796.6666666666667" x2="796.6666666666667" y1="80" y2="350" class="ct-grid ct-horizontal"></line><line x1="832" x2="832" y1="80" y2="350" class="ct-grid ct-horizontal"></line><line x1="867.3333333333334" x2="867.3333333333334" y1="80" y2="350" class="ct-grid ct-horizontal"></line><line x1="902.6666666666667" x2="902.6666666666667" y1="80" y2="350" class="ct-grid ct-horizontal"></line><line x1="938" x2="938" y1="80" y2="350" class="ct-grid ct-horizontal"></line><line x1="973.3333333333334" x2="973.3333333333334" y1="80" y2="350" class="ct-grid ct-horizontal"></line><line x1="1008.6666666666667" x2="1008.6666666666667" y1="80" y2="350" class="ct-grid ct-horizontal"></line><line x1="1044" x2="1044" y1="80" y2="350" class="ct-grid ct-horizontal"></line><line x1="1079.3333333333335" x2="1079.3333333333335" y1="80" y2="350" class="ct-grid ct-horizontal"></line><line x1="1114.6666666666667" x2="1114.6666666666667" y1="80" y2="350" class="ct-grid ct-horizontal"></line><line x1="1150" x2="1150" y1="80" y2="350" class="ct-grid ct-horizontal"></line><line y1="350" y2="350" x1="90" x2="1150" class="ct-grid ct-vertical"></line><line y1="296" y2="296" x1="90" x2="1150" class="ct-grid ct-vertical"></line><line y1="242" y2="242" x1="90" x2="1150" class="ct-grid ct-vertical"></line><line y1="188" y2="188" x1="90" x2="1150" class="ct-grid ct-vertical"></line><line y1="134" y2="134" x1="90" x2="1150" class="ct-grid ct-vertical"></line><line y1="80" y2="80" x1="90" x2="1150" class="ct-grid ct-vertical"></line></g><g><g class="ct-series ct-series-a"><path d="M90,350L90,207.44C101.778,216.8,113.556,226.16,125.333,235.52C137.111,244.88,148.889,249.56,160.667,263.6C172.444,277.64,184.222,347.84,196,347.84C207.778,347.84,219.556,289.52,231.333,289.52C243.111,289.52,254.889,306.8,266.667,306.8C278.444,306.8,290.222,281.102,302,272.24C313.778,263.378,325.556,258.495,337.333,250.64C349.111,242.785,360.889,224.72,372.667,224.72C384.444,224.72,396.222,237.68,408,237.68C419.778,237.68,431.556,198.8,443.333,198.8C455.111,198.8,466.889,198.8,478.667,198.8C490.444,198.8,502.222,127.52,514,127.52C525.778,127.52,537.556,285.2,549.333,285.2C561.111,285.2,572.889,157.76,584.667,157.76C596.444,157.76,608.222,214.259,620,220.4C631.778,226.541,643.556,224.837,655.333,231.2C667.111,237.563,678.889,296.367,690.667,313.28C702.444,330.193,714.222,350,726,350C737.778,350,749.556,300.32,761.333,300.32C773.111,300.32,784.889,339.2,796.667,339.2C808.444,339.2,820.222,339.2,832,339.2C843.778,339.2,855.556,289.498,867.333,265.76C879.111,242.022,890.889,196.64,902.667,196.64C914.444,196.64,926.222,211.76,938,211.76C949.778,211.76,961.556,194.48,973.333,194.48C985.111,194.48,996.889,350,1008.667,350C1020.444,350,1032.222,338.686,1044,328.4C1055.778,318.114,1067.556,274.4,1079.333,274.4C1091.111,274.4,1102.889,323.833,1114.667,332.72C1126.444,341.607,1138.222,344.24,1150,350L1150,350Z" class="ct-area"></path><path d="M90,207.44C101.778,216.8,113.556,226.16,125.333,235.52C137.111,244.88,148.889,249.56,160.667,263.6C172.444,277.64,184.222,347.84,196,347.84C207.778,347.84,219.556,289.52,231.333,289.52C243.111,289.52,254.889,306.8,266.667,306.8C278.444,306.8,290.222,281.102,302,272.24C313.778,263.378,325.556,258.495,337.333,250.64C349.111,242.785,360.889,224.72,372.667,224.72C384.444,224.72,396.222,237.68,408,237.68C419.778,237.68,431.556,198.8,443.333,198.8C455.111,198.8,466.889,198.8,478.667,198.8C490.444,198.8,502.222,127.52,514,127.52C525.778,127.52,537.556,285.2,549.333,285.2C561.111,285.2,572.889,157.76,584.667,157.76C596.444,157.76,608.222,214.259,620,220.4C631.778,226.541,643.556,224.837,655.333,231.2C667.111,237.563,678.889,296.367,690.667,313.28C702.444,330.193,714.222,350,726,350C737.778,350,749.556,300.32,761.333,300.32C773.111,300.32,784.889,339.2,796.667,339.2C808.444,339.2,820.222,339.2,832,339.2C843.778,339.2,855.556,289.498,867.333,265.76C879.111,242.022,890.889,196.64,902.667,196.64C914.444,196.64,926.222,211.76,938,211.76C949.778,211.76,961.556,194.48,973.333,194.48C985.111,194.48,996.889,350,1008.667,350C1020.444,350,1032.222,338.686,1044,328.4C1055.778,318.114,1067.556,274.4,1079.333,274.4C1091.111,274.4,1102.889,323.833,1114.667,332.72C1126.444,341.607,1138.222,344.24,1150,350" class="ct-line"></path><line x1="90" y1="207.44" x2="90.01" y2="207.44" class="ct-point" ct:value="66"></line><line x1="125.33333333333334" y1="235.51999999999998" x2="125.34333333333335" y2="235.51999999999998" class="ct-point" ct:value="53"></line><line x1="160.66666666666669" y1="263.6" x2="160.67666666666668" y2="263.6" class="ct-point" ct:value="40"></line><line x1="196" y1="347.84" x2="196.01" y2="347.84" class="ct-point" ct:value="1"></line><line x1="231.33333333333334" y1="289.52" x2="231.34333333333333" y2="289.52" class="ct-point" ct:value="28"></line><line x1="266.6666666666667" y1="306.8" x2="266.6766666666667" y2="306.8" class="ct-point" ct:value="20"></line><line x1="302" y1="272.24" x2="302.01" y2="272.24" class="ct-point" ct:value="36"></line><line x1="337.33333333333337" y1="250.64" x2="337.34333333333336" y2="250.64" class="ct-point" ct:value="46"></line><line x1="372.6666666666667" y1="224.72" x2="372.6766666666667" y2="224.72" class="ct-point" ct:value="58"></line><line x1="408" y1="237.68" x2="408.01" y2="237.68" class="ct-point" ct:value="52"></line><line x1="443.33333333333337" y1="198.8" x2="443.34333333333336" y2="198.8" class="ct-point" ct:value="70"></line><line x1="478.6666666666667" y1="198.8" x2="478.6766666666667" y2="198.8" class="ct-point" ct:value="70"></line><line x1="514" y1="127.52000000000001" x2="514.01" y2="127.52000000000001" class="ct-point" ct:value="103"></line><line x1="549.3333333333334" y1="285.2" x2="549.3433333333334" y2="285.2" class="ct-point" ct:value="30"></line><line x1="584.6666666666667" y1="157.76" x2="584.6766666666667" y2="157.76" class="ct-point" ct:value="89"></line><line x1="620" y1="220.4" x2="620.01" y2="220.4" class="ct-point" ct:value="60"></line><line x1="655.3333333333334" y1="231.2" x2="655.3433333333334" y2="231.2" class="ct-point" ct:value="55"></line><line x1="690.6666666666667" y1="313.28" x2="690.6766666666667" y2="313.28" class="ct-point" ct:value="17"></line><line x1="726" y1="350" x2="726.01" y2="350" class="ct-point" ct:value="0"></line><line x1="761.3333333333334" y1="300.32" x2="761.3433333333334" y2="300.32" class="ct-point" ct:value="23"></line><line x1="796.6666666666667" y1="339.2" x2="796.6766666666667" y2="339.2" class="ct-point" ct:value="5"></line><line x1="832" y1="339.2" x2="832.01" y2="339.2" class="ct-point" ct:value="5"></line><line x1="867.3333333333334" y1="265.76" x2="867.3433333333334" y2="265.76" class="ct-point" ct:value="39"></line><line x1="902.6666666666667" y1="196.64" x2="902.6766666666667" y2="196.64" class="ct-point" ct:value="71"></line><line x1="938" y1="211.76" x2="938.01" y2="211.76" class="ct-point" ct:value="64"></line><line x1="973.3333333333334" y1="194.48" x2="973.3433333333334" y2="194.48" class="ct-point" ct:value="72"></line><line x1="1008.6666666666667" y1="350" x2="1008.6766666666667" y2="350" class="ct-point" ct:value="0"></line><line x1="1044" y1="328.4" x2="1044.01" y2="328.4" class="ct-point" ct:value="10"></line><line x1="1079.3333333333335" y1="274.4" x2="1079.3433333333335" y2="274.4" class="ct-point" ct:value="35"></line><line x1="1114.6666666666667" y1="332.72" x2="1114.6766666666667" y2="332.72" class="ct-point" ct:value="8"></line><line x1="1150" y1="350" x2="1150.01" y2="350" class="ct-point" ct:value="0"></line></g></g><g class="ct-labels"><text x="85.5" y="370" width="35.333333333333336" height="40" class="ct-label ct-horizontal ct-end">23</text><text x="120.83333333333334" y="370" width="35.333333333333336" height="40" class="ct-label ct-horizontal ct-end">24</text><text x="156.16666666666669" y="370" width="35.33333333333333" height="40" class="ct-label ct-horizontal ct-end">25</text><text x="191.5" y="370" width="35.33333333333334" height="40" class="ct-label ct-horizontal ct-end">26</text><text x="226.83333333333334" y="370" width="35.33333333333334" height="40" class="ct-label ct-horizontal ct-end">27</text><text x="262.1666666666667" y="370" width="35.333333333333314" height="40" class="ct-label ct-horizontal ct-end">28</text><text x="297.5" y="370" width="35.33333333333334" height="40" class="ct-label ct-horizontal ct-end">29</text><text x="332.83333333333337" y="370" width="35.33333333333334" height="40" class="ct-label ct-horizontal ct-end">30</text><text x="368.1666666666667" y="370" width="35.333333333333314" height="40" class="ct-label ct-horizontal ct-end">1</text><text x="403.5" y="370" width="35.33333333333337" height="40" class="ct-label ct-horizontal ct-end">2</text><text x="438.83333333333337" y="370" width="35.333333333333314" height="40" class="ct-label ct-horizontal ct-end">3</text><text x="474.1666666666667" y="370" width="35.333333333333314" height="40" class="ct-label ct-horizontal ct-end">4</text><text x="509.5" y="370" width="35.33333333333337" height="40" class="ct-label ct-horizontal ct-end">5</text><text x="544.8333333333334" y="370" width="35.333333333333314" height="40" class="ct-label ct-horizontal ct-end">6</text><text x="580.1666666666667" y="370" width="35.333333333333314" height="40" class="ct-label ct-horizontal ct-end">7</text><text x="615.5" y="370" width="35.33333333333337" height="40" class="ct-label ct-horizontal ct-end">8</text><text x="650.8333333333334" y="370" width="35.33333333333337" height="40" class="ct-label ct-horizontal ct-end">9</text><text x="686.1666666666667" y="370" width="35.33333333333326" height="40" class="ct-label ct-horizontal ct-end">10</text><text x="721.5" y="370" width="35.33333333333337" height="40" class="ct-label ct-horizontal ct-end">11</text><text x="756.8333333333334" y="370" width="35.33333333333337" height="40" class="ct-label ct-horizontal ct-end">12</text><text x="792.1666666666667" y="370" width="35.33333333333326" height="40" class="ct-label ct-horizontal ct-end">13</text><text x="827.5" y="370" width="35.33333333333337" height="40" class="ct-label ct-horizontal ct-end">14</text><text x="862.8333333333334" y="370" width="35.33333333333337" height="40" class="ct-label ct-horizontal ct-end">15</text><text x="898.1666666666667" y="370" width="35.33333333333326" height="40" class="ct-label ct-horizontal ct-end">16</text><text x="933.5" y="370" width="35.33333333333337" height="40" class="ct-label ct-horizontal ct-end">17</text><text x="968.8333333333334" y="370" width="35.33333333333337" height="40" class="ct-label ct-horizontal ct-end">18</text><text x="1004.1666666666667" y="370" width="35.33333333333337" height="40" class="ct-label ct-horizontal ct-end">19</text><text x="1039.5" y="370" width="35.33333333333326" height="40" class="ct-label ct-horizontal ct-end">20</text><text x="1074.8333333333335" y="370" width="35.33333333333337" height="40" class="ct-label ct-horizontal ct-end">21</text><text x="1110.1666666666667" y="370" width="35.33333333333326" height="40" class="ct-label ct-horizontal ct-end">22</text><text x="1145.5" y="370" width="30" height="40" class="ct-label ct-horizontal ct-end">23</text><text y="354.5" x="80" height="54" width="60" class="ct-label ct-vertical ct-start">0</text><text y="300.5" x="80" height="54" width="60" class="ct-label ct-vertical ct-start">25</text><text y="246.5" x="80" height="54" width="60" class="ct-label ct-vertical ct-start">50</text><text y="192.5" x="80" height="54" width="60" class="ct-label ct-vertical ct-start">75</text><text y="138.5" x="80" height="54" width="60" class="ct-label ct-vertical ct-start">100</text><text y="84.5" x="80" height="30" width="60" class="ct-label ct-vertical ct-start">125</text></g><text class="ct-axis-title ct-label" x="620" y="400" dominant-baseline="text-after-edge" text-anchor="middle">Days</text><text class="ct-axis-title ct-label" x="20" y="215" transform="rotate(-90, 20, 215)" dominant-baseline="hanging" text-anchor="middle">Contributions</text></svg>
    </svg>
