
    <svg
        width="1200"
        height="420"
        viewBox="0 0 1200 420"
        fill="none"
        xmlns="http://www.w3.org/2000/svg">
            <rect xmlns="http://www.w3.org/2000/svg" data-testid="card_bg" id="cardBg"
            x="0" y="0" rx="0" height="100%" stroke="#E4E2E2" fill-opacity="1"
            width="100%" fill="#00000000" stroke-opacity="1" style="stroke:#ffffff; stroke-width:1;"/>

            <style>
                body {
                    font: 600 18px 'Segoe UI', Ubuntu, Sans-Serif;
                }
                .header {
                    font: 600 20px 'Segoe UI', Ubuntu, Sans-Serif;
                    text-align: center;
                    color: #6CABDD;
                    margin-top: 20px;
                }
                svg {
                    font: 600 18px 'Segoe UI', Ubuntu, Sans-Serif;
                    user-select: none;
                }
                
    .ct-label {
      fill: #6CABDD;
      color: #6CABDD;
      font-size: .75rem;
      line-height: 1;
    }

    .ct-grid-background,
    .ct-line {
      fill: none;
    }

    .ct-chart-bar .ct-label,
    .ct-chart-line .ct-label {
      display: block;
      display: -webkit-box;
      display: -moz-box;
      display: -ms-flexbox;
      display: -webkit-flex;
      display: flex;
    }

    .ct-label.ct-horizontal.ct-start {
      -webkit-box-align: flex-end;
      -webkit-align-items: flex-end;
      -ms-flex-align: flex-end;
      align-items: flex-end;
      -webkit-box-pack: flex-start;
      -webkit-justify-content: flex-start;
      -ms-flex-pack: flex-start;
      justify-content: flex-start;
      text-align: left;
      text-anchor: start;
    }

    .ct-label.ct-horizontal.ct-end {
      -webkit-box-align: flex-start;
      -webkit-align-items: flex-start;
      -ms-flex-align: flex-start;
      align-items: flex-start;
      -webkit-box-pack: flex-start;
      -webkit-justify-content: flex-start;
      -ms-flex-pack: flex-start;
      justify-content: flex-start;
      text-align: left;
      text-anchor: start;
    }

    .ct-label.ct-vertical.ct-start {
      -webkit-box-align: flex-end;
      -webkit-align-items: flex-end;
      -ms-flex-align: flex-end;
      align-items: flex-end;
      -webkit-box-pack: flex-end;
      -webkit-justify-content: flex-end;
      -ms-flex-pack: flex-end;
      justify-content: flex-end;
      text-align: right;
      text-anchor: end;
    }

    .ct-label.ct-vertical.ct-end {
      -webkit-box-align: flex-end;
      -webkit-align-items: flex-end;
      -ms-flex-align: flex-end;
      align-items: flex-end;
      -webkit-box-pack: flex-start;
      -webkit-justify-content: flex-start;
      -ms-flex-pack: flex-start;
      justify-content: flex-start;
      text-align: left;
      text-anchor: start;
    }

    .ct-grid {
      stroke: #6CABDD;
      stroke-width: 1px;
      stroke-opacity: 0.3;
      stroke-dasharray: 2px;
    }

    .ct-point {
      stroke-width: 10px;
      stroke-linecap: round;
      stroke: #FFCE00;
      animation: blink 1s ease-in-out forwards;
    }

    .ct-line {
      stroke-width: 4px;
      stroke-dasharray: 5000;
      stroke-dashoffset: 5000;
      stroke: #6CABDD;
      animation: dash 5s ease-in-out forwards;
    }

    .ct-area {
      stroke: none;
      fill-opacity: 0.1;
    }

    .ct-series-a .ct-area,
    .ct-series-a .ct-slice-pie {
      fill: #6CABDD30;
    }

    .ct-label .ct-horizontal {
      transform: rotate(-90deg)
    }
    
                
        @keyframes blink {
            from {
                opacity: 0;
                transform:translateX(-20px); 
            }
            to {
                opacity:1;
                transform: translateX(0);
            }
        }
    
                
        @keyframes dash {
            to {
                stroke-dashoffset: 0;
            }
        }
    
    
            </style>

            <foreignObject x="0" y="0" width="1200" height="50">
                <h1 xmlns="http://www.w3.org/1999/xhtml" class="header">
                    promise's Contribution Graph
                </h1>
            </foreignObject>
            <svg xmlns:ct="http://gionkunz.github.com/chartist-js/ct" width="1200" height="420" class="ct-chart-line"><g class="ct-grids"><line x1="90" x2="90" y1="80" y2="350" class="ct-grid ct-horizontal"></line><line x1="125.33333333333334" x2="125.33333333333334" y1="80" y2="350" class="ct-grid ct-horizontal"></line><line x1="160.66666666666669" x2="160.66666666666669" y1="80" y2="350" class="ct-grid ct-horizontal"></line><line x1="196" x2="196" y1="80" y2="350" class="ct-grid ct-horizontal"></line><line x1="231.33333333333334" x2="231.33333333333334" y1="80" y2="350" class="ct-grid ct-horizontal"></line><line x1="266.6666666666667" x2="266.6666666666667" y1="80" y2="350" class="ct-grid ct-horizontal"></line><line x1="302" x2="302" y1="80" y2="350" class="ct-grid ct-horizontal"></line><line x1="337.33333333333337" x2="337.33333333333337" y1="80" y2="350" class="ct-grid ct-horizontal"></line><line x1="372.6666666666667" x2="372.6666666666667" y1="80" y2="350" class="ct-grid ct-horizontal"></line><line x1="408" x2="408" y1="80" y2="350" class="ct-grid ct-horizontal"></line><line x1="443.33333333333337" x2="443.33333333333337" y1="80" y2="350" class="ct-grid ct-horizontal"></line><line x1="478.6666666666667" x2="478.6666666666667" y1="80" y2="350" class="ct-grid ct-horizontal"></line><line x1="514" x2="514" y1="80" y2="350" class="ct-grid ct-horizontal"></line><line x1="549.3333333333334" x2="549.3333333333334" y1="80" y2="350" class="ct-grid ct-horizontal"></line><line x1="584.6666666666667" x2="584.6666666666667" y1="80" y2="350" class="ct-grid ct-horizontal"></line><line x1="620" x2="620" y1="80" y2="350" class="ct-grid ct-horizontal"></line><line x1="655.3333333333334" x2="655.3333333333334" y1="80" y2="350" class="ct-grid ct-horizontal"></line><line x1="690.6666666666667" x2="690.6666666666667" y1="80" y2="350" class="ct-grid ct-horizontal"></line><line x1="726" x2="726" y1="80" y2="350" class="ct-grid ct-horizontal"></line><line x1="761.3333333333334" x2="761.3333333333334" y1="80" y2="350" class="ct-grid ct-horizontal"></line><line x1="796.6666666666667" x2="796.6666666666667" y1="80" y2="350" class="ct-grid ct-horizontal"></line><line x1="832" x2="832" y1="80" y2="350" class="ct-grid ct-horizontal"></line><line x1="867.3333333333334" x2="867.3333333333334" y1="80" y2="350" class="ct-grid ct-horizontal"></line><line x1="902.6666666666667" x2="902.6666666666667" y1="80" y2="350" class="ct-grid ct-horizontal"></line><line x1="938" x2="938" y1="80" y2="350" class="ct-grid ct-horizontal"></line><line x1="973.3333333333334" x2="973.3333333333334" y1="80" y2="350" class="ct-grid ct-horizontal"></line><line x1="1008.6666666666667" x2="1008.6666666666667" y1="80" y2="350" class="ct-grid ct-horizontal"></line><line x1="1044" x2="1044" y1="80" y2="350" class="ct-grid ct-horizontal"></line><line x1="1079.3333333333335" x2="1079.3333333333335" y1="80" y2="350" class="ct-grid ct-horizontal"></line><line x1="1114.6666666666667" x2="1114.6666666666667" y1="80" y2="350" class="ct-grid ct-horizontal"></line><line x1="1150" x2="1150" y1="80" y2="350" class="ct-grid ct-horizontal"></line><line y1="350" y2="350" x1="90" x2="1150" class="ct-grid ct-vertical"></line><line y1="320" y2="320" x1="90" x2="1150" class="ct-grid ct-vertical"></line><line y1="290" y2="290" x1="90" x2="1150" class="ct-grid ct-vertical"></line><line y1="260" y2="260" x1="90" x2="1150" class="ct-grid ct-vertical"></line><line y1="230" y2="230" x1="90" x2="1150" class="ct-grid ct-vertical"></line><line y1="200" y2="200" x1="90" x2="1150" class="ct-grid ct-vertical"></line><line y1="170" y2="170" x1="90" x2="1150" class="ct-grid ct-vertical"></line><line y1="140" y2="140" x1="90" x2="1150" class="ct-grid ct-vertical"></line><line y1="110" y2="110" x1="90" x2="1150" class="ct-grid ct-vertical"></line><line y1="80" y2="80" x1="90" x2="1150" class="ct-grid ct-vertical"></line></g><g><g class="ct-series ct-series-a"><path d="M90,350L90,182C101.778,155.6,113.556,102.8,125.333,102.8C137.111,102.8,148.889,279.2,160.667,279.2C172.444,279.2,184.222,136.4,196,136.4C207.778,136.4,219.556,199.176,231.333,206C243.111,212.824,254.889,210.93,266.667,218C278.444,225.07,290.222,290.407,302,309.2C313.778,327.993,325.556,350,337.333,350C349.111,350,360.889,294.8,372.667,294.8C384.444,294.8,396.222,338,408,338C419.778,338,431.556,336.722,443.333,334.4C455.111,332.078,466.889,261.304,478.667,227.6C490.444,193.896,502.222,131.6,514,131.6C525.778,131.6,537.556,168.8,549.333,168.8C561.111,168.8,572.889,111.2,584.667,111.2C596.444,111.2,608.222,350,620,350C631.778,350,643.556,334.667,655.333,322.4C667.111,310.133,678.889,267.2,690.667,267.2C702.444,267.2,714.222,330.8,726,330.8C737.778,330.8,749.556,305.81,761.333,285.2C773.111,264.59,784.889,189.2,796.667,189.2C808.444,189.2,820.222,299.996,832,309.2C843.778,318.404,855.556,324.8,867.333,324.8C879.111,324.8,890.889,177.2,902.667,177.2C914.444,177.2,926.222,215.382,938,237.2C949.778,259.018,961.556,304.836,973.333,309.2C985.111,313.564,996.889,312.852,1008.667,316.4C1020.444,319.948,1032.222,332.448,1044,336.8C1055.778,341.152,1067.556,346.4,1079.333,346.4C1091.111,346.4,1102.889,238.4,1114.667,238.4C1126.444,238.4,1138.222,307.2,1150,341.6L1150,350Z" class="ct-area"></path><path d="M90,182C101.778,155.6,113.556,102.8,125.333,102.8C137.111,102.8,148.889,279.2,160.667,279.2C172.444,279.2,184.222,136.4,196,136.4C207.778,136.4,219.556,199.176,231.333,206C243.111,212.824,254.889,210.93,266.667,218C278.444,225.07,290.222,290.407,302,309.2C313.778,327.993,325.556,350,337.333,350C349.111,350,360.889,294.8,372.667,294.8C384.444,294.8,396.222,338,408,338C419.778,338,431.556,336.722,443.333,334.4C455.111,332.078,466.889,261.304,478.667,227.6C490.444,193.896,502.222,131.6,514,131.6C525.778,131.6,537.556,168.8,549.333,168.8C561.111,168.8,572.889,111.2,584.667,111.2C596.444,111.2,608.222,350,620,350C631.778,350,643.556,334.667,655.333,322.4C667.111,310.133,678.889,267.2,690.667,267.2C702.444,267.2,714.222,330.8,726,330.8C737.778,330.8,749.556,305.81,761.333,285.2C773.111,264.59,784.889,189.2,796.667,189.2C808.444,189.2,820.222,299.996,832,309.2C843.778,318.404,855.556,324.8,867.333,324.8C879.111,324.8,890.889,177.2,902.667,177.2C914.444,177.2,926.222,215.382,938,237.2C949.778,259.018,961.556,304.836,973.333,309.2C985.111,313.564,996.889,312.852,1008.667,316.4C1020.444,319.948,1032.222,332.448,1044,336.8C1055.778,341.152,1067.556,346.4,1079.333,346.4C1091.111,346.4,1102.889,238.4,1114.667,238.4C1126.444,238.4,1138.222,307.2,1150,341.6" class="ct-line"></path><line x1="90" y1="182" x2="90.01" y2="182" class="ct-point" ct:value="140"></line><line x1="125.33333333333334" y1="102.80000000000001" x2="125.34333333333335" y2="102.80000000000001" class="ct-point" ct:value="206"></line><line x1="160.66666666666669" y1="279.2" x2="160.67666666666668" y2="279.2" class="ct-point" ct:value="59"></line><line x1="196" y1="136.4" x2="196.01" y2="136.4" class="ct-point" ct:value="178"></line><line x1="231.33333333333334" y1="206" x2="231.34333333333333" y2="206" class="ct-point" ct:value="120"></line><line x1="266.6666666666667" y1="218" x2="266.6766666666667" y2="218" class="ct-point" ct:value="110"></line><line x1="302" y1="309.2" x2="302.01" y2="309.2" class="ct-point" ct:value="34"></line><line x1="337.33333333333337" y1="350" x2="337.34333333333336" y2="350" class="ct-point" ct:value="0"></line><line x1="372.6666666666667" y1="294.8" x2="372.6766666666667" y2="294.8" class="ct-point" ct:value="46"></line><line x1="408" y1="338" x2="408.01" y2="338" class="ct-point" ct:value="10"></line><line x1="443.33333333333337" y1="334.4" x2="443.34333333333336" y2="334.4" class="ct-point" ct:value="13"></line><line x1="478.6666666666667" y1="227.6" x2="478.6766666666667" y2="227.6" class="ct-point" ct:value="102"></line><line x1="514" y1="131.6" x2="514.01" y2="131.6" class="ct-point" ct:value="182"></line><line x1="549.3333333333334" y1="168.8" x2="549.3433333333334" y2="168.8" class="ct-point" ct:value="151"></line><line x1="584.6666666666667" y1="111.19999999999999" x2="584.6766666666667" y2="111.19999999999999" class="ct-point" ct:value="199"></line><line x1="620" y1="350" x2="620.01" y2="350" class="ct-point" ct:value="0"></line><line x1="655.3333333333334" y1="322.4" x2="655.3433333333334" y2="322.4" class="ct-point" ct:value="23"></line><line x1="690.6666666666667" y1="267.2" x2="690.6766666666667" y2="267.2" class="ct-point" ct:value="69"></line><line x1="726" y1="330.8" x2="726.01" y2="330.8" class="ct-point" ct:value="16"></line><line x1="761.3333333333334" y1="285.2" x2="761.3433333333334" y2="285.2" class="ct-point" ct:value="54"></line><line x1="796.6666666666667" y1="189.2" x2="796.6766666666667" y2="189.2" class="ct-point" ct:value="134"></line><line x1="832" y1="309.2" x2="832.01" y2="309.2" class="ct-point" ct:value="34"></line><line x1="867.3333333333334" y1="324.8" x2="867.3433333333334" y2="324.8" class="ct-point" ct:value="21"></line><line x1="902.6666666666667" y1="177.2" x2="902.6766666666667" y2="177.2" class="ct-point" ct:value="144"></line><line x1="938" y1="237.2" x2="938.01" y2="237.2" class="ct-point" ct:value="94"></line><line x1="973.3333333333334" y1="309.2" x2="973.3433333333334" y2="309.2" class="ct-point" ct:value="34"></line><line x1="1008.6666666666667" y1="316.4" x2="1008.6766666666667" y2="316.4" class="ct-point" ct:value="28"></line><line x1="1044" y1="336.8" x2="1044.01" y2="336.8" class="ct-point" ct:value="11"></line><line x1="1079.3333333333335" y1="346.4" x2="1079.3433333333335" y2="346.4" class="ct-point" ct:value="3"></line><line x1="1114.6666666666667" y1="238.4" x2="1114.6766666666667" y2="238.4" class="ct-point" ct:value="93"></line><line x1="1150" y1="341.6" x2="1150.01" y2="341.6" class="ct-point" ct:value="7"></line></g></g><g class="ct-labels"><text x="85.5" y="370" width="35.333333333333336" height="40" class="ct-label ct-horizontal ct-end">4</text><text x="120.83333333333334" y="370" width="35.333333333333336" height="40" class="ct-label ct-horizontal ct-end">5</text><text x="156.16666666666669" y="370" width="35.33333333333333" height="40" class="ct-label ct-horizontal ct-end">6</text><text x="191.5" y="370" width="35.33333333333334" height="40" class="ct-label ct-horizontal ct-end">7</text><text x="226.83333333333334" y="370" width="35.33333333333334" height="40" class="ct-label ct-horizontal ct-end">8</text><text x="262.1666666666667" y="370" width="35.333333333333314" height="40" class="ct-label ct-horizontal ct-end">9</text><text x="297.5" y="370" width="35.33333333333334" height="40" class="ct-label ct-horizontal ct-end">10</text><text x="332.83333333333337" y="370" width="35.33333333333334" height="40" class="ct-label ct-horizontal ct-end">11</text><text x="368.1666666666667" y="370" width="35.333333333333314" height="40" class="ct-label ct-horizontal ct-end">12</text><text x="403.5" y="370" width="35.33333333333337" height="40" class="ct-label ct-horizontal ct-end">13</text><text x="438.83333333333337" y="370" width="35.333333333333314" height="40" class="ct-label ct-horizontal ct-end">14</text><text x="474.1666666666667" y="370" width="35.333333333333314" height="40" class="ct-label ct-horizontal ct-end">15</text><text x="509.5" y="370" width="35.33333333333337" height="40" class="ct-label ct-horizontal ct-end">16</text><text x="544.8333333333334" y="370" width="35.333333333333314" height="40" class="ct-label ct-horizontal ct-end">17</text><text x="580.1666666666667" y="370" width="35.333333333333314" height="40" class="ct-label ct-horizontal ct-end">18</text><text x="615.5" y="370" width="35.33333333333337" height="40" class="ct-label ct-horizontal ct-end">19</text><text x="650.8333333333334" y="370" width="35.33333333333337" height="40" class="ct-label ct-horizontal ct-end">20</text><text x="686.1666666666667" y="370" width="35.33333333333326" height="40" class="ct-label ct-horizontal ct-end">21</text><text x="721.5" y="370" width="35.33333333333337" height="40" class="ct-label ct-horizontal ct-end">22</text><text x="756.8333333333334" y="370" width="35.33333333333337" height="40" class="ct-label ct-horizontal ct-end">23</text><text x="792.1666666666667" y="370" width="35.33333333333326" height="40" class="ct-label ct-horizontal ct-end">24</text><text x="827.5" y="370" width="35.33333333333337" height="40" class="ct-label ct-horizontal ct-end">25</text><text x="862.8333333333334" y="370" width="35.33333333333337" height="40" class="ct-label ct-horizontal ct-end">26</text><text x="898.1666666666667" y="370" width="35.33333333333326" height="40" class="ct-label ct-horizontal ct-end">27</text><text x="933.5" y="370" width="35.33333333333337" height="40" class="ct-label ct-horizontal ct-end">28</text><text x="968.8333333333334" y="370" width="35.33333333333337" height="40" class="ct-label ct-horizontal ct-end">29</text><text x="1004.1666666666667" y="370" width="35.33333333333337" height="40" class="ct-label ct-horizontal ct-end">30</text><text x="1039.5" y="370" width="35.33333333333326" height="40" class="ct-label ct-horizontal ct-end">31</text><text x="1074.8333333333335" y="370" width="35.33333333333337" height="40" class="ct-label ct-horizontal ct-end">1</text><text x="1110.1666666666667" y="370" width="35.33333333333326" height="40" class="ct-label ct-horizontal ct-end">2</text><text x="1145.5" y="370" width="30" height="40" class="ct-label ct-horizontal ct-end">3</text><text y="354.5" x="80" height="30" width="60" class="ct-label ct-vertical ct-start">0</text><text y="324.5" x="80" height="30" width="60" class="ct-label ct-vertical ct-start">25</text><text y="294.5" x="80" height="30" width="60" class="ct-label ct-vertical ct-start">50</text><text y="264.5" x="80" height="30" width="60" class="ct-label ct-vertical ct-start">75</text><text y="234.5" x="80" height="30" width="60" class="ct-label ct-vertical ct-start">100</text><text y="204.5" x="80" height="30" width="60" class="ct-label ct-vertical ct-start">125</text><text y="174.5" x="80" height="30" width="60" class="ct-label ct-vertical ct-start">150</text><text y="144.5" x="80" height="30" width="60" class="ct-label ct-vertical ct-start">175</text><text y="114.5" x="80" height="30" width="60" class="ct-label ct-vertical ct-start">200</text><text y="84.5" x="80" height="30" width="60" class="ct-label ct-vertical ct-start">225</text></g><text class="ct-axis-title ct-label" x="620" y="400" dominant-baseline="text-after-edge" text-anchor="middle">Days</text><text class="ct-axis-title ct-label" x="20" y="215" transform="rotate(-90, 20, 215)" dominant-baseline="hanging" text-anchor="middle">Contributions</text></svg>
    </svg>
